-
www.TorrentKit.com      thanks for supporting with server,
www.TorrentKit.com      where speed speaks hot tracker
don't forget to to visit torrentkit.com ,   Who love to share please seed for a better speed,
-                                             
                               
                                 
                                      
                                      
                                       
    CoaX!<CPH>                         
                               
                         
                            
          
    Team FiCO <Final Coalition> 2k8 Presents:    
    

The.Second.City.First.Family.of.Comedy.2006.Part3.DVDRip.XviD-FiCO 
http://www.imdb.com/title/tt0940640/
Subtitles: None
Date: 2011.02

Director: Sharon Bartlett
Genre: Documentary
Plot: An uproarious behind-the-scenes look at Chicago's famed Second City 
comedy club and troupe, this retrospective spans from the group's early days 
to the hit "SCTV" series and beyond as it tickles with reminiscences from Dan 
Aykroyd, Tina Fey, Martin Short, Alan Arkin and Mike Meyers. Footage of Jim 
Belushi, Bill Murray, Gilda Radner, John Candy, Eugene Levy and other alumni 
affirms Second City's place in comedy history.

Cast:
    James Belushi, Dan Aykroyd, Tina Fey, Alan Arkin, Mike Myers, Harold 
Ramis, Martin Short, Ryan Stiles 

General
Format                           : AVI
Format/Info                      : Audio Video Interleave
File size                        : 346 MiB
Duration                         : 39mn 5s
Overall bit rate                 : 1 236 Kbps
Writing application              : VirtualDubMod 1.5.10.2 (build 2542/release)
Writing library                  : VirtualDubMod build 2542/release

Video
ID                               : 0
Format                           : MPEG-4 Visual
Format profile                   : Advanced Simple@L5
Format settings, BVOP            : Yes
Format settings, QPel            : No
Format settings, GMC             : No warppoints
Format settings, Matrix          : Default (H.263)
Codec ID                         : XVID
Codec ID/Hint                    : XviD
Duration                         : 39mn 5s
Bit rate                         : 1 094 Kbps
Width                            : 512 pixels
Height                           : 384 pixels
Display aspect ratio             : 4:3
Frame rate                       : 29.970 fps
Resolution                       : 8 bits
Colorimetry                      : 4:2:0
Scan type                        : Progressive
Bits/(Pixel*Frame)               : 0.186
Stream size                      : 306 MiB (89%)
Writing library                  : XviD 61

Audio
ID                               : 1
Format                           : MPEG Audio
Format version                   : Version 1
Format profile                   : Layer 3
Mode                             : Joint stereo
Format_Settings_ModeExtension    : MS Stereo
Codec ID                         : 55
Codec ID/Hint                    : MP3
Duration                         : 39mn 5s
Bit rate mode                    : Variable
Bit rate                         : 128 Kbps
Channel(s)                       : 2 channels
Sampling rate                    : 48.0 KHz
Stream size                      : 35.8 MiB (10%)
Alignment                        : Aligned on interleaves
Interleave, duration             : 24 ms (0.72 video frame)
Interleave, preload duration     : 505 ms
Writing library                  : LAME3.90.
Encoding settings                : -m j -V 4 -q 2 -lowpass 17.6 --abr 128






Release notes:
enjoy!


                                                                     
                                                             
                                                               
                                                               
                       
      
              Greetz from Team FiCO:               
              
                                                             
                                                             
           BLooDWeiSeR,CULTXviD,SiCK,DoNE,LAP,TH30R1STS              
                                                                             
               WinBeta, DvF, WASTE, BERC, KALEVALA, Jiggly                   
                                                                             
                                                             
                                       
                             
                      
                  
           
            
                    
                  
                
                            
                                        
                                        
                                            
                                                    
                                                              
                      you know where to find us...                     
                        
   NFO By: CoaXCable/CoolPHat <#CPH>